

Mummy Punjabi (2011) Hindi 1CD PDVDRip AVC-=MTR=-@Mastitorrents
   
http://thepiratebay.org/user/HDvideos/0/7

Ripper : Rahul
Complete name : Mummy Punjabi (2011)
Format : Matroska
File size : 497 MiB
Duration : 1h 57mn
Overall bit rate : 592 Kbps
Writing library : libmkv 0.6.4.1

Video
ID : 1
Format : AVC
Format/Info : Advanced Video Codec
Format profile : High@L2.1
Format settings, CABAC : Yes
Format settings, ReFrames : 4 frames
Format settings, GOP : M=1, N=7
Codec ID : V_MPEG4/ISO/AVC
Duration : 1h 57mn
Bit rate : 369 Kbps
Width : 640 pixels
Height : 272 pixels
Display aspect ratio : 2.35:1
Frame rate : 23.976 fps
Color space : YUV
Chroma subsampling : 4:2:0
Bit depth : 8 bits
Scan type : Progressive
Bits/(Pixel*Frame) : 0.088
Stream size : 299 MiB (60%)
Writing library : x264 core 112


Audio
ID : 2
Format : AC-3
Format/Info : Audio Coding 3
Mode extension : CM (complete main)
Codec ID : A_AC3
Duration : 1h 57mn
Bit rate mode : Constant
Bit rate : 224 Kbps
Channel(s) : 2 channels
Channel positions : Front: L R
Sampling rate : 32.0 KHz
Bit depth : 16 bits
Compression mode : Lossy
Stream size : 188 MiB (38%)

Recommended Player:VLC Player

facebook. com/MastiTorrents

facebook. com/MastiTorrentsReleasers